HIERARCHY
ROOT joint_0
{
	OFFSET 0.000000 0.000000 0.000000
	CHANNELS 6 Xposition Yposition Zposition Zrotation Yrotation Xrotation 
	JOINT joint_1
	{
		OFFSET -0.613770 -1.125488 108.300049
		CHANNELS 3 Zrotation Yrotation Xrotation
		JOINT joint_2
		{
			OFFSET -10.925537 -0.900513 98.259033
			CHANNELS 3 Zrotation Yrotation Xrotation
			JOINT joint_3
			{
				OFFSET -11.287842 0.313599 98.110962
				CHANNELS 3 Zrotation Yrotation Xrotation
				JOINT joint_4
				{
					OFFSET -2.124268 2.484680 136.491943
					CHANNELS 3 Zrotation Yrotation Xrotation
					JOINT joint_5
					{
						OFFSET 16.640869 1.801270 81.862061
						CHANNELS 3 Zrotation Yrotation Xrotation
						End Site
						{
							OFFSET 0.000000 0.000000 0.000000
						}
					}
				}
				JOINT joint_6
				{
					OFFSET 0.447998 -28.248108 77.258057
					CHANNELS 3 Zrotation Yrotation Xrotation
					JOINT joint_7
					{
						OFFSET 7.918701 -130.256348 -24.086060
						CHANNELS 3 Zrotation Yrotation Xrotation
						JOINT joint_8
						{
							OFFSET 62.431885 -29.384277 -258.572021
							CHANNELS 3 Zrotation Yrotation Xrotation
							JOINT joint_9
							{
								OFFSET 53.743164 -21.907532 -238.024963
								CHANNELS 3 Zrotation Yrotation Xrotation
								End Site
								{
									OFFSET 0.000000 0.000000 0.000000
								}
							}
						}
					}
				}
				JOINT joint_10
				{
					OFFSET -2.846924 31.052063 76.130981
					CHANNELS 3 Zrotation Yrotation Xrotation
					JOINT joint_11
					{
						OFFSET 9.073730 131.055603 -18.752930
						CHANNELS 3 Zrotation Yrotation Xrotation
						JOINT joint_12
						{
							OFFSET 52.981201 29.883301 -260.613037
							CHANNELS 3 Zrotation Yrotation Xrotation
							JOINT joint_13
							{
								OFFSET 62.237793 15.935547 -236.423035
								CHANNELS 3 Zrotation Yrotation Xrotation
								End Site
								{
									OFFSET 0.000000 0.000000 0.000000
								}
							}
						}
					}
				}
			}
		}
	}
	JOINT joint_14
	{
		OFFSET 22.046143 -72.816772 -98.122925
		CHANNELS 3 Zrotation Yrotation Xrotation
		JOINT joint_15
		{
			OFFSET -23.673828 -54.692932 -469.927032
			CHANNELS 3 Zrotation Yrotation Xrotation
			JOINT joint_16
			{
				OFFSET -34.875244 -46.505249 -395.890999
				CHANNELS 3 Zrotation Yrotation Xrotation
				JOINT joint_17
				{
					OFFSET 168.486328 14.224182 -74.182999
					CHANNELS 3 Zrotation Yrotation Xrotation
					End Site
					{
						OFFSET 0.000000 0.000000 0.000000
					}
				}
			}
		}
	}
	JOINT joint_18
	{
		OFFSET -1.731934 82.408569 -92.846924
		CHANNELS 3 Zrotation Yrotation Xrotation
		JOINT joint_19
		{
			OFFSET -6.908936 32.203369 -472.535034
			CHANNELS 3 Zrotation Yrotation Xrotation
			JOINT joint_20
			{
				OFFSET -13.963135 23.196533 -399.207993
				CHANNELS 3 Zrotation Yrotation Xrotation
				JOINT joint_21
				{
					OFFSET 168.417725 19.834229 -73.041004
					CHANNELS 3 Zrotation Yrotation Xrotation
					End Site
					{
						OFFSET 0.000000 0.000000 0.000000
					}
				}
			}
		}
	}
}
MOTION
Frames: 18
Frame Time: 0.016667
-2595.333740 986.216736 1059.215942 -0.955054 3.716163 -2.747198 1.889410 -0.513521 3.311655 1.468261 0.029215 -0.720946 1.598559 -0.097712 0.366821 -0.002210 0.420344 -0.039250 0.000000 0.000000 0.000000 1.629830 0.305765 -2.012760 0.391389 0.796251 2.337839 0.558325 -1.984889 1.697900 0.000000 0.000000 0.000000 3.430116 -0.097485 -1.860623 -0.490469 -0.683999 -1.491668 -0.292346 0.675527 -1.277302 0.000000 0.000000 0.000000 1.170433 -4.650007 6.948063 1.067475 -0.415487 0.187635 0.810975 1.774396 0.203478 0.000000 0.000000 0.000000 1.872170 -1.961277 2.352049 2.157532 1.319617 -0.904383 1.849178 -2.801860 1.128641 0.000000 0.000000 0.000000 
-2595.641602 986.190796 1059.222046 -0.960377 3.699009 -2.742115 1.889778 -0.501105 3.316393 1.467916 0.026805 -0.721837 1.598376 -0.093887 0.367523 -0.001602 0.423035 -0.042541 0.000000 0.000000 0.000000 1.629975 0.324327 -2.012451 0.387497 0.815189 2.332036 0.559593 -1.993694 1.700130 0.000000 0.000000 0.000000 3.429574 -0.089938 -1.874800 -0.489663 -0.677444 -1.488160 -0.294046 0.679066 -1.284525 0.000000 0.000000 0.000000 1.173977 -4.657519 6.944831 1.068751 -0.402771 0.187287 0.812353 1.786331 0.203062 0.000000 0.000000 0.000000 1.873399 -1.968395 2.351886 2.160494 1.334590 -0.911792 1.851466 -2.794861 1.128832 0.000000 0.000000 0.000000 
-2595.949951 986.161682 1059.227051 -0.967096 3.680704 -2.737464 1.890701 -0.485095 3.322456 1.467767 0.024911 -0.724276 1.598723 -0.090388 0.369448 -0.000774 0.422294 -0.046486 0.000000 0.000000 0.000000 1.631209 0.342269 -2.013309 0.383087 0.833756 2.324168 0.561366 -2.003123 1.704431 0.000000 0.000000 0.000000 3.428208 -0.083816 -1.889068 -0.488920 -0.672224 -1.484591 -0.295787 0.681303 -1.291564 0.000000 0.000000 0.000000 1.178086 -4.664899 6.943024 1.070534 -0.388130 0.185397 0.814341 1.797963 0.202936 0.000000 0.000000 0.000000 1.874741 -1.975356 2.352438 2.163743 1.352142 -0.919097 1.853837 -2.788893 1.129179 0.000000 0.000000 0.000000 
-2596.247559 986.134399 1059.233032 -0.972429 3.662323 -2.731799 1.891790 -0.469871 3.327167 1.468008 0.023214 -0.726008 1.599225 -0.086705 0.370087 0.000048 0.422499 -0.050516 0.000000 0.000000 0.000000 1.629786 0.360348 -2.012860 0.379085 0.851859 2.317033 0.561938 -2.009712 1.704369 0.000000 0.000000 0.000000 3.424905 -0.078434 -1.902224 -0.488205 -0.667394 -1.480999 -0.297240 0.684530 -1.297791 0.000000 0.000000 0.000000 1.181668 -4.671588 6.939847 1.071713 -0.373077 0.183909 0.815850 1.809375 0.202621 0.000000 0.000000 0.000000 1.875970 -1.981524 2.351942 2.166777 1.369283 -0.926600 1.856024 -2.782750 1.129426 0.000000 0.000000 0.000000 
-2596.527832 986.107849 1059.239990 -0.974549 3.644159 -2.724253 1.892400 -0.456277 3.327538 1.468548 0.021006 -0.724990 1.599461 -0.083013 0.368754 0.000908 0.424678 -0.054980 0.000000 0.000000 0.000000 1.624206 0.378951 -2.011307 0.376450 0.869633 2.313951 0.560072 -2.010737 1.695375 0.000000 0.000000 0.000000 3.418536 -0.073031 -1.911627 -0.487803 -0.661680 -1.480313 -0.297751 0.688414 -1.300682 0.000000 0.000000 0.000000 1.184202 -4.676805 6.934429 1.071937 -0.358586 0.182856 0.816491 1.820030 0.201992 0.000000 0.000000 0.000000 1.876571 -1.986481 2.349468 2.168960 1.385026 -0.934135 1.857454 -2.776527 1.129337 0.000000 0.000000 0.000000 
-2596.798096 986.081909 1059.245972 -0.975385 3.625281 -2.715293 1.893073 -0.442068 3.325644 1.469361 0.018879 -0.724177 1.600116 -0.079960 0.368443 0.001905 0.426694 -0.060089 0.000000 0.000000 0.000000 1.615755 0.397643 -2.010727 0.374499 0.887011 2.312820 0.557094 -2.009007 1.682401 0.000000 0.000000 0.000000 3.410021 -0.067929 -1.919790 -0.487571 -0.655810 -1.480890 -0.297953 0.692331 -1.302428 0.000000 0.000000 0.000000 1.186318 -4.680666 6.927188 1.071716 -0.343659 0.182408 0.816838 1.830379 0.201261 0.000000 0.000000 0.000000 1.877039 -1.989915 2.345635 2.170858 1.400465 -0.941960 1.858569 -2.770979 1.129190 0.000000 0.000000 0.000000 
-2597.061035 986.059265 1059.251953 -0.975888 3.607869 -2.706923 1.892424 -0.431346 3.325852 1.468730 0.017493 -0.722925 1.599209 -0.077478 0.367539 0.002874 0.431585 -0.065411 0.000000 0.000000 0.000000 1.610425 0.416776 -2.009532 0.371496 0.905372 2.308375 0.555058 -2.009905 1.672684 0.000000 0.000000 0.000000 3.405392 -0.061984 -1.929142 -0.487077 -0.649830 -1.479684 -0.298677 0.695973 -1.306049 0.000000 0.000000 0.000000 1.188468 -4.685309 6.920344 1.071564 -0.329552 0.181867 0.817112 1.841090 0.200468 0.000000 0.000000 0.000000 1.877258 -1.994818 2.342657 2.172670 1.416363 -0.950583 1.859554 -2.765317 1.128973 0.000000 0.000000 0.000000 
-2597.316895 986.043823 1059.255981 -0.977799 3.593038 -2.700299 1.890038 -0.425085 3.332425 1.465397 0.014719 -0.724843 1.596259 -0.073817 0.369159 0.004395 0.438523 -0.073673 0.000000 0.000000 0.000000 1.612063 0.436240 -2.011510 0.366911 0.925578 2.299527 0.555215 -2.015876 1.670966 0.000000 0.000000 0.000000 3.408597 -0.054403 -1.941968 -0.486223 -0.643730 -1.475746 -0.300746 0.697676 -1.314167 0.000000 0.000000 0.000000 1.191395 -4.692090 6.914195 1.072040 -0.316517 0.182773 0.817932 1.852407 0.199861 0.000000 0.000000 0.000000 1.877682 -2.002368 2.341786 2.175001 1.433186 -0.960803 1.860891 -2.760571 1.129015 0.000000 0.000000 0.000000 
-2597.566162 986.031494 1059.258057 -0.979722 3.578670 -2.694018 1.886875 -0.420036 3.340971 1.461076 0.012029 -0.727004 1.592374 -0.071903 0.370927 0.005934 0.449515 -0.082519 0.000000 0.000000 0.000000 1.615757 0.456540 -2.014280 0.361534 0.947078 2.288633 0.556314 -2.024870 1.672346 0.000000 0.000000 0.000000 3.414226 -0.045699 -1.955776 -0.485125 -0.637010 -1.470088 -0.303607 0.699008 -1.325130 0.000000 0.000000 0.000000 1.194289 -4.698784 6.907969 1.072513 -0.303917 0.184217 0.818761 1.863588 0.199270 0.000000 0.000000 0.000000 1.878253 -2.010309 2.341533 2.177571 1.450573 -0.971968 1.862344 -2.756739 1.129214 0.000000 0.000000 0.000000 
-2597.813965 986.017334 1059.258057 -0.979802 3.562278 -2.686955 1.882911 -0.412726 3.347268 1.456307 0.010223 -0.727877 1.587824 -0.069422 0.372143 0.007236 0.457600 -0.089845 0.000000 0.000000 0.000000 1.619228 0.475410 -2.015630 0.356331 0.966980 2.277594 0.557307 -2.033517 1.673380 0.000000 0.000000 0.000000 3.418960 -0.037906 -1.968873 -0.484080 -0.631005 -1.464755 -0.305878 0.701267 -1.334138 0.000000 0.000000 0.000000 1.196647 -4.702713 6.901878 1.072925 -0.291829 0.183985 0.819268 1.875339 0.198490 0.000000 0.000000 0.000000 1.878340 -2.016151 2.340534 2.179492 1.468084 -0.982690 1.863156 -2.753115 1.129159 0.000000 0.000000 0.000000 
-2598.067383 985.998230 1059.256958 -0.977118 3.541224 -2.678160 1.879375 -0.397544 3.350700 1.452016 0.006860 -0.729747 1.583887 -0.065526 0.373595 0.008450 0.465485 -0.096721 0.000000 0.000000 0.000000 1.619592 0.492409 -2.013748 0.351413 0.984171 2.266291 0.557987 -2.041966 1.673077 0.000000 0.000000 0.000000 3.415409 -0.031988 -1.980804 -0.482896 -0.625602 -1.459109 -0.307209 0.705061 -1.340051 0.000000 0.000000 0.000000 1.197947 -4.701734 6.896035 1.072970 -0.279363 0.180478 0.819157 1.887310 0.197423 0.000000 0.000000 0.000000 1.877716 -2.017991 2.337487 2.180431 1.486763 -0.991821 1.862988 -2.749590 1.128694 0.000000 0.000000 0.000000 
-2598.318359 985.977539 1059.254028 -0.973152 3.518206 -2.668572 1.875137 -0.381350 3.352007 1.447453 0.006032 -0.729861 1.579358 -0.061769 0.373982 0.009747 0.471314 -0.103750 0.000000 0.000000 0.000000 1.620780 0.508216 -2.010627 0.346703 1.000220 2.255200 0.558414 -2.050717 1.671499 0.000000 0.000000 0.000000 3.411296 -0.026902 -1.992758 -0.481654 -0.620966 -1.453189 -0.307869 0.710220 -1.343815 0.000000 0.000000 0.000000 1.198554 -4.698323 6.890202 1.072661 -0.266911 0.175754 0.818544 1.899782 0.196095 0.000000 0.000000 0.000000 1.876893 -2.017603 2.333503 2.180971 1.505283 -1.000246 1.862472 -2.745868 1.128056 0.000000 0.000000 0.000000 
-2598.558594 985.959534 1059.250000 -0.970036 3.496916 -2.659030 1.870841 -0.367622 3.353049 1.442859 0.004045 -0.730217 1.574851 -0.058485 0.374623 0.010618 0.479615 -0.109000 0.000000 0.000000 0.000000 1.621839 0.524614 -2.007374 0.342218 1.016854 2.245195 0.558725 -2.058582 1.669730 0.000000 0.000000 0.000000 3.408851 -0.020522 -2.004424 -0.480309 -0.615238 -1.447157 -0.308496 0.716088 -1.347644 0.000000 0.000000 0.000000 1.199704 -4.695829 6.883542 1.072808 -0.255553 0.172156 0.818249 1.913168 0.194827 0.000000 0.000000 0.000000 1.876321 -2.017834 2.329770 2.181764 1.522900 -1.009791 1.862164 -2.743017 1.127608 0.000000 0.000000 0.000000 
-2598.783691 985.948120 1059.246948 -0.969183 3.480194 -2.651070 1.867622 -0.360165 3.356388 1.439139 0.000120 -0.730876 1.571283 -0.054330 0.375631 0.011423 0.491318 -0.114347 0.000000 0.000000 0.000000 1.620008 0.542182 -2.004673 0.338147 1.034168 2.236811 0.558418 -2.064711 1.665830 0.000000 0.000000 0.000000 3.407135 -0.012413 -2.017943 -0.478664 -0.608029 -1.440428 -0.308865 0.722951 -1.350765 0.000000 0.000000 0.000000 1.201529 -4.697287 6.876707 1.073175 -0.245557 0.171333 0.818011 1.928823 0.193391 0.000000 0.000000 0.000000 1.876347 -2.020654 2.327588 2.183199 1.537764 -1.020589 1.862601 -2.740011 1.127464 0.000000 0.000000 0.000000 
-2598.996094 985.940735 1059.243042 -0.969128 3.465505 -2.643417 1.864041 -0.357690 3.360891 1.434913 -0.002422 -0.732558 1.567336 -0.050878 0.376590 0.011931 0.505295 -0.118518 0.000000 0.000000 0.000000 1.619767 0.560290 -2.001718 0.334171 1.052325 2.229108 0.558016 -2.070004 1.661811 0.000000 0.000000 0.000000 3.408302 -0.003018 -2.031113 -0.476961 -0.599898 -1.433873 -0.309036 0.730649 -1.353367 0.000000 0.000000 0.000000 1.203623 -4.699756 6.869206 1.073732 -0.236901 0.171985 0.817791 1.945808 0.191850 0.000000 0.000000 0.000000 1.876709 -2.024021 2.325767 2.184911 1.550920 -1.032300 1.863361 -2.737233 1.127486 0.000000 0.000000 0.000000 
-2599.202393 985.931396 1059.237061 -0.968600 3.448774 -2.635237 1.860796 -0.354431 3.362631 1.431540 -0.004414 -0.732163 1.563917 -0.048163 0.376873 0.012163 0.519444 -0.121361 0.000000 0.000000 0.000000 1.617845 0.578883 -1.998271 0.330182 1.070652 2.221768 0.558144 -2.077005 1.659529 0.000000 0.000000 0.000000 3.406311 0.006611 -2.043389 -0.475011 -0.591087 -1.425789 -0.309886 0.738005 -1.358401 0.000000 0.000000 0.000000 1.205632 -4.699638 6.861482 1.074471 -0.228019 0.172309 0.817797 1.962285 0.190451 0.000000 0.000000 0.000000 1.877027 -2.026553 2.323999 2.186796 1.567951 -1.044852 1.863915 -2.736728 1.127685 0.000000 0.000000 0.000000 
-2599.403076 985.918884 1059.228027 -0.966883 3.427803 -2.626489 1.856603 -0.348072 3.363222 1.427216 -0.006780 -0.732526 1.559679 -0.046284 0.377505 0.012213 0.531468 -0.123038 0.000000 0.000000 0.000000 1.621089 0.598012 -1.995585 0.325950 1.090581 2.214896 0.559485 -2.086528 1.661796 0.000000 0.000000 0.000000 3.404884 0.017165 -2.052403 -0.473070 -0.581234 -1.417236 -0.312082 0.743618 -1.367987 0.000000 0.000000 0.000000 1.207320 -4.694411 6.854091 1.075517 -0.218801 0.171327 0.818147 1.977615 0.189300 0.000000 0.000000 0.000000 1.877163 -2.027021 2.322574 2.188787 1.591069 -1.058389 1.864024 -2.739329 1.128057 0.000000 0.000000 0.000000 
-2599.595459 985.905701 1059.218018 -0.964688 3.404974 -2.617171 1.851926 -0.343213 3.362546 1.422599 -0.006360 -0.732739 1.555096 -0.044875 0.377732 0.012029 0.543449 -0.123555 0.000000 0.000000 0.000000 1.626294 0.617159 -1.991917 0.321563 1.110850 2.207843 0.561327 -2.097404 1.665806 0.000000 0.000000 0.000000 3.403131 0.027947 -2.060340 -0.470922 -0.571111 -1.407010 -0.315072 0.748838 -1.380421 0.000000 0.000000 0.000000 1.208818 -4.686430 6.846260 1.076686 -0.209862 0.170189 0.818561 1.993023 0.188170 0.000000 0.000000 0.000000 1.877186 -2.026439 2.320971 2.190810 1.617380 -1.072591 1.863868 -2.743640 1.128514 0.000000 0.000000 0.000000 
